<mxfile host="65bd71144e">
    <diagram id="xjMxp6ajAW2MkX7l27Ax" name="第 1 页">
        <mxGraphModel dx="1066" dy="869" grid="1" gridSize="10" guides="1" tooltips="1" connect="1" arrows="1" fold="1" page="0" pageScale="1" pageWidth="827" pageHeight="1169" background="#000000" math="0" shadow="1">
            <root>
                <mxCell id="0"/>
                <mxCell id="1" parent="0"/>
                <mxCell id="2" value="&lt;font style=&quot;font-size: 36px;&quot;&gt;Class: Message&lt;/font&gt;" style="swimlane;fontStyle=0;childLayout=stackLayout;horizontal=1;startSize=70;horizontalStack=0;resizeParent=1;resizeParentMax=0;resizeLast=0;collapsible=1;marginBottom=0;whiteSpace=wrap;html=1;" vertex="1" parent="1">
                    <mxGeometry x="400" y="200" width="390" height="350" as="geometry"/>
                </mxCell>
                <mxCell id="3" value="&lt;font style=&quot;font-size: 24px;&quot;&gt;Ctors &amp;amp; Dtors&lt;/font&gt;" style="text;strokeColor=none;fillColor=none;align=left;verticalAlign=middle;spacingLeft=4;spacingRight=4;overflow=hidden;points=[[0,0.5],[1,0.5]];portConstraint=eastwest;rotatable=0;whiteSpace=wrap;html=1;" vertex="1" parent="2">
                    <mxGeometry y="70" width="390" height="50" as="geometry"/>
                </mxCell>
                <mxCell id="4" value="&lt;span style=&quot;font-size: 24px;&quot;&gt;Functions to complete the operation&lt;/span&gt;" style="text;strokeColor=default;fillColor=none;align=left;verticalAlign=middle;spacingLeft=4;spacingRight=4;overflow=hidden;points=[[0,0.5],[1,0.5]];portConstraint=eastwest;rotatable=0;whiteSpace=wrap;html=1;" vertex="1" parent="2">
                    <mxGeometry y="120" width="390" height="120" as="geometry"/>
                </mxCell>
                <mxCell id="5" value="&lt;font style=&quot;font-size: 24px;&quot;&gt;Members&lt;/font&gt;" style="text;strokeColor=none;fillColor=none;align=left;verticalAlign=middle;spacingLeft=4;spacingRight=4;overflow=hidden;points=[[0,0.5],[1,0.5]];portConstraint=eastwest;rotatable=0;whiteSpace=wrap;html=1;" vertex="1" parent="2">
                    <mxGeometry y="240" width="390" height="110" as="geometry"/>
                </mxCell>
                <mxCell id="7" value="&lt;span style=&quot;text-align: left;&quot;&gt;Ctors &amp;amp; Dtors&lt;/span&gt;" style="text;html=1;strokeColor=default;fillColor=none;align=center;verticalAlign=middle;whiteSpace=wrap;rounded=0;fontSize=24;" vertex="1" parent="1">
                    <mxGeometry x="850" y="200" width="240" height="80" as="geometry"/>
                </mxCell>
                <mxCell id="10" style="edgeStyle=none;html=1;entryX=0.1;entryY=0.5;entryDx=0;entryDy=0;fontSize=24;entryPerimeter=0;" edge="1" parent="1" source="7" target="9">
                    <mxGeometry relative="1" as="geometry"/>
                </mxCell>
                <mxCell id="9" value="" style="shape=curlyBracket;whiteSpace=wrap;html=1;rounded=1;labelPosition=left;verticalLabelPosition=middle;align=right;verticalAlign=middle;strokeColor=default;fontSize=24;size=0;" vertex="1" parent="1">
                    <mxGeometry x="1210" y="155" width="30" height="170" as="geometry"/>
                </mxCell>
                <mxCell id="11" value="三五法则" style="text;strokeColor=none;fillColor=none;html=1;fontSize=24;fontStyle=1;verticalAlign=middle;align=center;" vertex="1" parent="1">
                    <mxGeometry x="1100" y="200" width="100" height="40" as="geometry"/>
                </mxCell>
                <mxCell id="23" style="edgeStyle=none;html=1;exitX=1;exitY=0.5;exitDx=0;exitDy=0;fontSize=24;entryX=0.1;entryY=0.5;entryDx=0;entryDy=0;entryPerimeter=0;" edge="1" parent="1" source="13" target="24">
                    <mxGeometry relative="1" as="geometry">
                        <mxPoint x="1280" y="480" as="targetPoint"/>
                    </mxGeometry>
                </mxCell>
                <mxCell id="13" value="&lt;span style=&quot;text-align: left;&quot;&gt;Functions to complete the operation&lt;/span&gt;" style="text;html=1;strokeColor=default;fillColor=none;align=center;verticalAlign=middle;whiteSpace=wrap;rounded=0;fontSize=24;" vertex="1" parent="1">
                    <mxGeometry x="850" y="370" width="240" height="90" as="geometry"/>
                </mxCell>
                <mxCell id="14" value="Members" style="text;html=1;strokeColor=default;fillColor=none;align=center;verticalAlign=middle;whiteSpace=wrap;rounded=0;fontSize=24;" vertex="1" parent="1">
                    <mxGeometry x="850" y="520" width="240" height="60" as="geometry"/>
                </mxCell>
                <mxCell id="15" value="Default Ctor" style="text;html=1;strokeColor=none;fillColor=none;align=center;verticalAlign=middle;whiteSpace=wrap;rounded=0;fontSize=24;" vertex="1" parent="1">
                    <mxGeometry x="1245" y="140" width="170" height="30" as="geometry"/>
                </mxCell>
                <mxCell id="16" value="Move Ctor" style="text;html=1;strokeColor=default;fillColor=none;align=center;verticalAlign=middle;whiteSpace=wrap;rounded=0;fontSize=24;" vertex="1" parent="1">
                    <mxGeometry x="1260" y="180" width="140" height="30" as="geometry"/>
                </mxCell>
                <mxCell id="28" style="edgeStyle=none;html=1;entryX=0;entryY=0.5;entryDx=0;entryDy=0;fontSize=24;" edge="1" parent="1" source="17" target="27">
                    <mxGeometry relative="1" as="geometry"/>
                </mxCell>
                <mxCell id="17" value="Copy Ctor" style="text;html=1;strokeColor=default;fillColor=none;align=center;verticalAlign=middle;whiteSpace=wrap;rounded=0;fontSize=24;" vertex="1" parent="1">
                    <mxGeometry x="1260" y="225" width="140" height="30" as="geometry"/>
                </mxCell>
                <mxCell id="32" style="edgeStyle=none;html=1;entryX=0;entryY=0.5;entryDx=0;entryDy=0;fontSize=18;exitX=1;exitY=0.5;exitDx=0;exitDy=0;" edge="1" parent="1" source="21" target="31">
                    <mxGeometry relative="1" as="geometry">
                        <Array as="points">
                            <mxPoint x="1600" y="285"/>
                            <mxPoint x="1600" y="315"/>
                        </Array>
                    </mxGeometry>
                </mxCell>
                <mxCell id="21" value="Move assignment operator" style="text;html=1;strokeColor=default;fillColor=none;align=center;verticalAlign=middle;whiteSpace=wrap;rounded=0;fontSize=24;" vertex="1" parent="1">
                    <mxGeometry x="1260" y="270" width="300" height="30" as="geometry"/>
                </mxCell>
                <mxCell id="22" value="Copy assignment operator" style="text;html=1;strokeColor=none;fillColor=none;align=center;verticalAlign=middle;whiteSpace=wrap;rounded=0;fontSize=24;" vertex="1" parent="1">
                    <mxGeometry x="1245" y="300" width="320" height="30" as="geometry"/>
                </mxCell>
                <mxCell id="24" value="" style="shape=curlyBracket;whiteSpace=wrap;html=1;rounded=1;labelPosition=left;verticalLabelPosition=middle;align=right;verticalAlign=middle;strokeColor=default;fontSize=24;fillColor=none;" vertex="1" parent="1">
                    <mxGeometry x="1200" y="355" width="20" height="120" as="geometry"/>
                </mxCell>
                <mxCell id="25" value="" style="endArrow=classic;html=1;fontSize=24;exitX=1;exitY=0.5;exitDx=0;exitDy=0;entryX=0;entryY=0.5;entryDx=0;entryDy=0;" edge="1" parent="1" source="16" target="26">
                    <mxGeometry width="50" height="50" relative="1" as="geometry">
                        <mxPoint x="1400" y="400" as="sourcePoint"/>
                        <mxPoint x="1530" y="205" as="targetPoint"/>
                    </mxGeometry>
                </mxCell>
                <mxCell id="26" value="func:&amp;nbsp;&lt;span style=&quot;color: rgb(169, 220, 118); background-color: rgb(45, 42, 46); font-family: &amp;quot;YaHei Consolas Hybrid&amp;quot;, monospace; font-size: 13.5pt;&quot;&gt;move_Folders&lt;/span&gt;" style="text;html=1;strokeColor=default;fillColor=none;align=center;verticalAlign=middle;whiteSpace=wrap;rounded=0;fontSize=24;" vertex="1" parent="1">
                    <mxGeometry x="1565" y="180" width="230" height="30" as="geometry"/>
                </mxCell>
                <mxCell id="27" value="func:&amp;nbsp;&lt;span style=&quot;color: rgb(169, 220, 118); background-color: rgb(45, 42, 46); font-family: &amp;quot;YaHei Consolas Hybrid&amp;quot;, monospace; font-size: 13.5pt;&quot;&gt;add_to_Folders&lt;/span&gt;" style="text;html=1;strokeColor=default;fillColor=none;align=center;verticalAlign=middle;whiteSpace=wrap;rounded=0;fontSize=24;" vertex="1" parent="1">
                    <mxGeometry x="1565" y="225" width="230" height="30" as="geometry"/>
                </mxCell>
                <mxCell id="29" value="&lt;font style=&quot;font-size: 18px;&quot;&gt;implemented from&lt;/font&gt;" style="text;html=1;strokeColor=none;fillColor=none;align=center;verticalAlign=middle;whiteSpace=wrap;rounded=0;fontSize=24;" vertex="1" parent="1">
                    <mxGeometry x="1370" y="170" width="220" height="30" as="geometry"/>
                </mxCell>
                <mxCell id="30" value="&lt;font style=&quot;font-size: 18px;&quot;&gt;implemented from&lt;/font&gt;" style="text;html=1;strokeColor=none;fillColor=none;align=center;verticalAlign=middle;whiteSpace=wrap;rounded=0;fontSize=24;" vertex="1" parent="1">
                    <mxGeometry x="1370" y="215" width="220" height="30" as="geometry"/>
                </mxCell>
                <mxCell id="31" value="1.Check&lt;br&gt;2.Move: move members and call:&amp;nbsp;&lt;span style=&quot;color: rgb(169, 220, 118); font-family: &amp;quot;YaHei Consolas Hybrid&amp;quot;, monospace; background-color: rgb(45, 42, 46);&quot;&gt;move_Folders&lt;/span&gt;" style="text;html=1;strokeColor=default;fillColor=none;align=center;verticalAlign=middle;whiteSpace=wrap;rounded=0;fontSize=18;" vertex="1" parent="1">
                    <mxGeometry x="1670" y="270" width="250" height="90" as="geometry"/>
                </mxCell>
                <mxCell id="35" style="edgeStyle=none;html=1;exitX=1;exitY=0.5;exitDx=0;exitDy=0;entryX=0;entryY=0.5;entryDx=0;entryDy=0;fontSize=18;" edge="1" parent="1" source="33" target="34">
                    <mxGeometry relative="1" as="geometry"/>
                </mxCell>
                <mxCell id="37" style="edgeStyle=none;html=1;entryX=0;entryY=0.5;entryDx=0;entryDy=0;fontSize=18;exitX=1;exitY=0.5;exitDx=0;exitDy=0;" edge="1" parent="1" source="33" target="36">
                    <mxGeometry relative="1" as="geometry"/>
                </mxCell>
                <mxCell id="33" value="Most underlying:" style="text;html=1;strokeColor=default;fillColor=none;align=center;verticalAlign=middle;whiteSpace=wrap;rounded=0;fontSize=18;" vertex="1" parent="1">
                    <mxGeometry x="1230" y="355" width="140" height="50" as="geometry"/>
                </mxCell>
                <mxCell id="34" value="&lt;div style=&quot;background-color:#2d2a2e;color:#fcfcfa;font-family:'YaHei Consolas Hybrid',monospace;font-size:13.5pt;&quot;&gt;&lt;pre&gt;&lt;span style=&quot;color:#a9dc76;&quot;&gt;addFolder&lt;/span&gt;&lt;/pre&gt;&lt;/div&gt;" style="text;html=1;strokeColor=default;fillColor=none;align=center;verticalAlign=middle;whiteSpace=wrap;rounded=0;fontSize=18;" vertex="1" parent="1">
                    <mxGeometry x="1430" y="350" width="110" height="30" as="geometry"/>
                </mxCell>
                <mxCell id="36" value="&lt;div style=&quot;background-color:#2d2a2e;color:#fcfcfa;font-family:'YaHei Consolas Hybrid',monospace;font-size:13.5pt;&quot;&gt;&lt;pre&gt;&lt;span style=&quot;color:#a9dc76;&quot;&gt;rmvFolder&lt;/span&gt;&lt;/pre&gt;&lt;/div&gt;" style="text;html=1;strokeColor=default;fillColor=none;align=center;verticalAlign=middle;whiteSpace=wrap;rounded=0;fontSize=18;" vertex="1" parent="1">
                    <mxGeometry x="1430" y="390" width="110" height="30" as="geometry"/>
                </mxCell>
                <mxCell id="40" style="edgeStyle=none;html=1;entryX=1;entryY=0.5;entryDx=0;entryDy=0;fontSize=18;" edge="1" parent="1" source="38" target="34">
                    <mxGeometry relative="1" as="geometry"/>
                </mxCell>
                <mxCell id="38" value="set.insert" style="text;html=1;strokeColor=default;fillColor=none;align=center;verticalAlign=middle;whiteSpace=wrap;rounded=0;fontSize=18;" vertex="1" parent="1">
                    <mxGeometry x="1560" y="350" width="80" height="30" as="geometry"/>
                </mxCell>
                <mxCell id="41" style="edgeStyle=none;html=1;entryX=1;entryY=0.5;entryDx=0;entryDy=0;fontSize=18;" edge="1" parent="1" source="39" target="36">
                    <mxGeometry relative="1" as="geometry"/>
                </mxCell>
                <mxCell id="39" value="set.erase" style="text;html=1;strokeColor=default;fillColor=none;align=center;verticalAlign=middle;whiteSpace=wrap;rounded=0;fontSize=18;" vertex="1" parent="1">
                    <mxGeometry x="1560" y="390" width="80" height="30" as="geometry"/>
                </mxCell>
                <mxCell id="42" value="inline" style="text;html=1;strokeColor=none;fillColor=none;align=center;verticalAlign=middle;whiteSpace=wrap;rounded=0;fontSize=18;" vertex="1" parent="1">
                    <mxGeometry x="1370" y="340" width="60" height="30" as="geometry"/>
                </mxCell>
                <mxCell id="46" style="edgeStyle=none;html=1;entryX=0;entryY=0.5;entryDx=0;entryDy=0;fontSize=18;" edge="1" parent="1" source="43" target="44">
                    <mxGeometry relative="1" as="geometry"/>
                </mxCell>
                <mxCell id="48" style="edgeStyle=none;html=1;entryX=0;entryY=0.5;entryDx=0;entryDy=0;fontSize=18;exitX=1;exitY=0.5;exitDx=0;exitDy=0;" edge="1" parent="1" source="43" target="47">
                    <mxGeometry relative="1" as="geometry"/>
                </mxCell>
                <mxCell id="43" value="&lt;span style=&quot;color: rgb(240, 240, 240); font-family: Helvetica; font-size: 18px; font-style: normal; font-variant-ligatures: normal; font-variant-caps: normal; font-weight: 400; letter-spacing: normal; orphans: 2; text-align: center; text-indent: 0px; text-transform: none; widows: 2; word-spacing: 0px; -webkit-text-stroke-width: 0px; background-color: rgb(24, 20, 29); text-decoration-thickness: initial; text-decoration-style: initial; text-decoration-color: initial; float: none; display: inline !important;&quot;&gt;underlying:&lt;/span&gt;" style="text;html=1;strokeColor=default;fillColor=none;align=center;verticalAlign=middle;whiteSpace=wrap;rounded=0;fontSize=18;" vertex="1" parent="1">
                    <mxGeometry x="1230" y="440" width="140" height="50" as="geometry"/>
                </mxCell>
                <mxCell id="44" value="&lt;div style=&quot;background-color:#2d2a2e;color:#fcfcfa;font-family:'YaHei Consolas Hybrid',monospace;font-size:13.5pt;&quot;&gt;&lt;pre&gt;&lt;span style=&quot;color:#a9dc76;&quot;&gt;add_to_Folders&lt;/span&gt;&lt;/pre&gt;&lt;/div&gt;" style="text;html=1;strokeColor=none;fillColor=none;align=center;verticalAlign=middle;whiteSpace=wrap;rounded=0;fontSize=18;" vertex="1" parent="1">
                    <mxGeometry x="1430" y="445" width="160" height="30" as="geometry"/>
                </mxCell>
                <mxCell id="47" value="&lt;div style=&quot;background-color:#2d2a2e;color:#fcfcfa;font-family:'YaHei Consolas Hybrid',monospace;font-size:13.5pt;&quot;&gt;&lt;pre&gt;&lt;div style=&quot;font-family: &amp;quot;YaHei Consolas Hybrid&amp;quot;, monospace; font-size: 13.5pt;&quot;&gt;&lt;pre&gt;&lt;span style=&quot;color:#a9dc76;&quot;&gt;remove_from_Folders&lt;/span&gt;&lt;/pre&gt;&lt;/div&gt;&lt;/pre&gt;&lt;/div&gt;" style="text;html=1;strokeColor=none;fillColor=none;align=center;verticalAlign=middle;whiteSpace=wrap;rounded=0;fontSize=18;" vertex="1" parent="1">
                    <mxGeometry x="1430" y="480" width="210" height="30" as="geometry"/>
                </mxCell>
            </root>
        </mxGraphModel>
    </diagram>
</mxfile>